<?xml version="1.0" encoding="iso-8859-1"?>
<!-- Generator: Adobe Illustrator 19.0.0, SVG Export Plug-In . SVG Version: 6.00 Build 0)  -->
<svg version="1.1" id="Capa_1" xmlns="http://www.w3.org/2000/svg" xmlns:xlink="http://www.w3.org/1999/xlink" x="0px" y="0px"
	 viewBox="0 0 409.6 409.6" style="enable-background:new 0 0 409.6 409.6;" xml:space="preserve">
<g>
	<g>
		<path d="M392.535,0h-170.67c-9.38,0-17.065,7.68-17.065,17.065v102.4c0,9.385,7.685,17.065,17.065,17.065h170.67
			c9.38,0,17.065-7.68,17.065-17.065v-102.4C409.6,7.68,401.915,0,392.535,0z M375.465,102.4h-136.53V34.135h136.53V102.4z"/>
	</g>
</g>
<g>
	<g>
		<path d="M187.735,273.07H17.065C7.685,273.07,0,280.75,0,290.13v102.4c0,9.39,7.685,17.07,17.065,17.07h170.67
			c9.38,0,17.065-7.68,17.065-17.07v-102.4C204.8,280.75,197.115,273.07,187.735,273.07z M170.665,375.47H34.135V307.2h136.53
			V375.47z"/>
	</g>
</g>
<g>
	<g>
		<path d="M119.485,85.33h51.18V51.2h-51.18C81.787,51.2,51.2,81.751,51.2,119.45v61.22L24.136,153.62L0,177.751l56.202,56.182
			c6.651,6.671,17.464,6.671,24.136,0l56.202-56.197L112.399,153.6l-27.064,27.069l0.015-61.22
			C85.35,100.598,100.634,85.33,119.485,85.33z"/>
	</g>
</g>
<g>
	<g>
		<path d="M353.398,175.667c-6.651-6.666-17.464-6.666-24.136,0l-56.197,56.202L297.201,256l27.064-27.069l-0.015,61.22
			c0,18.852-15.283,34.12-34.135,34.12h-51.18v34.13h51.18c37.699,0,68.285-30.551,68.285-68.25v-61.22l27.064,27.049l24.136-24.131
			L353.398,175.667z"/>
	</g>
</g>
<g>
</g>
<g>
</g>
<g>
</g>
<g>
</g>
<g>
</g>
<g>
</g>
<g>
</g>
<g>
</g>
<g>
</g>
<g>
</g>
<g>
</g>
<g>
</g>
<g>
</g>
<g>
</g>
<g>
</g>
</svg>
