<?xml version="1.0"?>
<svg xmlns="http://www.w3.org/2000/svg" xmlns:xlink="http://www.w3.org/1999/xlink" version="1.1" id="Capa_1" x="0px" y="0px" viewBox="0 0 426.667 426.667" style="enable-background:new 0 0 426.667 426.667;" xml:space="preserve" width="512px" height="512px"><g transform="matrix(-1 0 0 1 426.667 0)"><g>
	<g>
		<g>
			<path d="M42.667,157.867L85.333,115.2L192,221.867v76.8h213.333v-85.333H384v-192C384,8.533,375.467,0,362.667,0h-128     c-12.8,0-21.333,8.533-21.333,21.333v162.133l-128-128L0,140.8V192h42.667V157.867z M256,42.667h85.333V128L256,170.667V42.667z" data-original="#000000" class="active-path" fill="#000000"/>
			<path d="M384,341.333H149.333c-23.467,0-42.667,19.2-42.667,42.667s19.2,42.667,42.667,42.667H384     c23.467,0,42.667-19.2,42.667-42.667S407.467,341.333,384,341.333z M170.667,405.333c-12.8,0-21.333-8.533-21.333-21.333     s8.533-21.333,21.333-21.333c12.8,0,21.333,8.533,21.333,21.333S183.467,405.333,170.667,405.333z M234.667,405.333     c-12.8,0-21.333-8.533-21.333-21.333s8.533-21.333,21.333-21.333c12.8,0,21.333,8.533,21.333,21.333     S247.467,405.333,234.667,405.333z M298.667,405.333c-12.8,0-21.333-8.533-21.333-21.333s8.533-21.333,21.333-21.333     c12.8,0,21.333,8.533,21.333,21.333S311.467,405.333,298.667,405.333z M362.667,405.333c-12.8,0-21.333-8.533-21.333-21.333     s8.533-21.333,21.333-21.333c12.8,0,21.333,8.533,21.333,21.333S375.467,405.333,362.667,405.333z" data-original="#000000" class="active-path" fill="#000000"/>
			<path d="M42.667,213.333H0v85.333C0,311.467,8.533,320,21.333,320h104.533L42.667,213.333z" data-original="#000000" class="active-path" fill="#000000"/>
		</g>
	</g>
</g></g> </svg>
