<?xml version="1.0" encoding="iso-8859-1"?>
<!-- Generator: Adobe Illustrator 19.0.0, SVG Export Plug-In . SVG Version: 6.00 Build 0)  -->
<svg version="1.1" id="Capa_1" xmlns="http://www.w3.org/2000/svg" xmlns:xlink="http://www.w3.org/1999/xlink" x="0px" y="0px"
	 viewBox="0 0 510.8 510.8" style="enable-background:new 0 0 510.8 510.8;" xml:space="preserve">
<g>
	<g>
		<g>
			<path d="M465.099,178.447l30.032-11.024c-3.93-10.682-8.569-21.089-13.888-31.152l-28.304,14.944
				C457.591,160.013,461.653,169.11,465.099,178.447z"/>
			<path d="M463.339,107.263c-6.613-9.254-13.829-18.063-21.6-26.368l-23.36,21.856c6.806,7.276,13.124,14.995,18.912,23.104
				L463.339,107.263z"/>
			<path d="M504.731,200.079v0.08l-31.248,6.928c26.89,120.808-49.245,240.542-170.053,267.432S62.888,425.274,35.998,304.465
				C9.107,183.657,85.243,63.924,206.051,37.033c67.091-14.934,137.325,1.747,190.536,45.253l20.272-24.768
				C307.572-31.651,146.691-15.343,57.522,93.944S-15.34,364.111,93.946,453.281s270.168,72.862,359.337-36.425
				C502.709,356.281,521.666,276.404,504.731,200.079z"/>
			<path d="M143.195,266.687l111.6,161.2l111.6-161.2l-111.6-186.016L143.195,266.687z M254.795,371.663l-46.96-67.888l46.96,20.944
				l46.96-20.944L254.795,371.663z M254.795,289.695l-69.552-30.912l69.552-115.904l69.552,115.904L254.795,289.695z"/>
		</g>
	</g>
</g>
<g>
</g>
<g>
</g>
<g>
</g>
<g>
</g>
<g>
</g>
<g>
</g>
<g>
</g>
<g>
</g>
<g>
</g>
<g>
</g>
<g>
</g>
<g>
</g>
<g>
</g>
<g>
</g>
<g>
</g>
</svg>
